# xmcd
#
# Track frame offsets:
#	150
#	19322
#	40300
#	55579
#	73098
#	96129
#	114613
#	132345
#	147133
#	163058
#
# Disc length: 2474 seconds
#
# Revision: 0
# Processed by: cddbd v1.5.2PL0 Copyright (c) Steve Scherf et al.
# Submitted via: audiograbber 1.83.01
#
DISCID=8c09a80a
DTITLE=David Sinclair Trio - Threewheeling
DYEAR=2008
DGENRE=Rock
TTITLE0=London Dust
TTITLE1=Your World Mystifies Me
TTITLE2=Eight Rounds Later
TTITLE3=Sharks
TTITLE4=Feedback
TTITLE5=Clear Up This Mess
TTITLE6=Clicks
TTITLE7=Share My Cab
TTITLE8=Just Struck Gold
TTITLE9=Was I Strong Enough?
EXTD=
EXTT0=
EXTT1=
EXTT2=
EXTT3=
EXTT4=
EXTT5=
EXTT6=
EXTT7=
EXTT8=
EXTT9=
PLAYORDER=
